<svg width="250" height="117" viewBox="0 0 250 117" fill="none" xmlns="http://www.w3.org/2000/svg">
<path d="M57.7759 0H64.0442L66.9491 0.458662L68.9366 0.611549L72.7588 1.37598L76.7339 2.4462L82.3907 4.43373V5.04528L80.5561 6.87992L79.9445 7.33859H78.1099L74.4406 6.72704L70.4655 6.26838L67.8664 6.11549H64.6558L59.7634 6.57415L55.4826 7.33859L51.9662 8.25591L47.5324 9.78478L45.0862 10.855L42.1814 12.3839L39.1236 14.2185L36.6774 15.9003L33.9255 17.8878L31.9379 19.4167L30.2562 21.0984L29.4917 21.71L28.4215 22.9331L26.7398 24.7677L24.7522 27.3668L23.682 28.8957L22.306 31.0361L21.0829 33.1765L19.8598 35.6227L18.0252 39.7507L16.3434 44.7959L15.4261 48.9239L14.9675 51.6759L14.6617 55.6509L14.5088 58.8616L16.1906 57.7914L22.0003 53.8163L25.058 51.9816L28.5744 50.147L32.7024 48.0066L34.8428 46.7835L36.0659 46.1719L37.4419 45.5604L36.8303 46.1719L34.8428 47.5479L33.161 48.771L30.7148 50.6057L28.5744 52.2874L26.5869 54.1221L25.3638 55.1923L21.0829 59.4731L20.8995 59.626L20.7772 59.7526L20.5937 59.9318L20.4714 60.0847L18.0252 62.5309L17.8723 62.6838L17.4137 63.1424L10.5337 70.0223L9.46352 71.2454L7.01732 73.8445L5.64134 75.3734L4.8769 76.2907L4.57113 75.9849L3.95958 74.1503L2.88937 68.9521L2.27782 64.3655L1.97205 60.8491V54.4278L2.43071 50.147L3.50092 44.6431L4.57113 40.9738L5.79423 37.4574L7.01732 34.3996L8.69908 30.8832L10.228 28.2841L11.9097 25.5322L13.5915 23.2389L15.2732 21.2513L16.6492 19.5696L18.0252 18.1936L18.7896 17.2763L20.0127 16.206L21.5416 14.6772L23.2234 13.3012L25.2109 11.6194L26.7398 10.5492L29.0331 9.02034L30.8677 7.95013L33.6197 6.42126L38.665 4.12795L44.3218 2.14042L50.5902 0.917323L54.7181 0.305774L57.7759 0Z" fill="#FEA31D"/>
<path d="M29.7975 64.3654C29.7975 64.3654 29.9504 64.0597 29.3389 65.1299C28.7273 66.2001 27.8424 67.5458 27.1984 68.7992C26.7322 69.7066 25.9753 71.2454 25.9753 71.2454L24.7522 73.9973L23.682 77.3608L22.9176 80.8772L22.6118 82.8648V85.311L23.3763 87.1456L25.058 89.7447L26.5869 91.7322L28.5744 94.0255L31.6322 97.0833L33.3139 98.4593L36.5246 100.905L41.4169 103.963L44.9334 105.798L48.9084 107.48L53.3422 108.856L56.7057 109.62L60.375 110.232L62.974 110.537H70.0069L75.205 109.926L77.8041 109.467L80.8619 108.703L85.9071 107.021L88.9649 105.645L91.4111 104.422L94.163 102.893L95.9977 101.67L98.5968 99.8353L100.279 98.4593L103.336 95.7073L105.782 93.1082L107.923 90.8149L108.687 90.0505L109.452 89.8976L109.146 90.662L107.464 92.8024L106.088 94.4842L104.254 96.6246L99.2083 101.67L97.0679 103.352L95.8448 104.422L93.0928 106.409L89.8822 108.397L87.7418 109.62L85.2956 110.843L82.0849 112.219L79.1801 113.442L75.0521 114.665L70.6184 115.583L66.9491 116.194L64.35 116.5H59.1519L54.4124 116.041L47.6853 115.124L44.1689 114.36L39.5823 112.831L35.7601 111.149L33.3139 109.926L30.2562 108.244L27.3513 106.409L24.9051 104.575L22.306 102.434L20.0127 100.447L16.955 97.3891L15.7319 95.4015L15.1203 94.0255L14.8146 92.4967V89.5918L15.4261 86.2283L16.8021 82.1003L18.9425 77.6666L20.9301 74.456L22.7647 72.0098L24.2936 70.0223L25.8225 68.1876L27.1984 66.6587L29.7975 64.3654Z" fill="#FEA31D"/>
<path d="M44.3218 44.0314L44.9333 43.7256C44.9333 43.7256 43.7481 44.7828 42.9458 45.4074C42.1352 46.0384 41.7003 46.3788 40.9583 47.0892C40.4998 47.5281 39.7352 48.1594 39.7352 48.1594L38.0534 49.8411L36.8303 50.9113L34.2312 53.5104L33.161 54.7335L30.8677 57.1797L29.186 59.0144L27.5042 61.0019L25.9753 62.9894L24.1407 65.2827L22.306 67.7289L20.3185 70.7867L18.6367 73.3858L16.955 76.2906L15.4261 79.5013L13.7444 84.0879L13.1328 87.1456L12.9799 88.9803V92.6495L13.2857 94.79L13.8972 96.6246L14.9675 98.765L16.3434 100.6L17.7194 102.129L19.0954 103.505L21.3887 105.033L25.5167 107.021L30.5619 109.161L31.785 109.773L32.2437 110.079L30.7148 109.926L29.3389 109.467H28.7273L29.4917 109.773V109.926H26.1282L20.0127 109.161L16.3434 108.397L12.6741 107.327L9.76929 106.257L6.25288 104.575L4.57112 103.505L3.04225 102.129L1.66627 100.141L0.901832 98.1535L0.290283 95.8602V93.1082L1.05472 89.8976L2.73648 85.6167L4.41824 82.4061L6.40577 79.1955L8.24042 76.7493L9.76929 74.7617L11.7568 72.3156L15.4261 68.0347L17.2608 66.0472L18.4839 64.977L23.8349 59.6259L25.058 58.5557L27.3513 56.4153L29.186 54.7335L30.7148 53.3575L32.3966 51.9816L33.9255 50.6056L35.4543 49.5354L37.5948 48.0065L40.041 46.4776L42.1814 45.2545L43.4045 44.643L44.3218 44.0314Z" fill="#192636"/>
<path d="M84.684 7.49142H85.6014L85.7542 8.56163L84.684 10.2434L83.308 11.9252L81.6263 13.6069L80.4032 14.6771L78.8743 15.9002L77.3454 17.2762L76.581 17.8878L77.0397 20.4868L77.1926 21.0984L77.8041 20.9455L79.333 19.7224L80.2503 19.5695L80.5561 19.8753V20.7926L79.333 22.0157L77.6512 22.933V24.1561L79.0272 32.412L79.1801 33.4822V34.7053L78.4157 35.4698L77.8041 35.3169L76.581 32.2592L75.205 28.437L73.9819 25.685L72.9117 24.309L71.9944 23.2388L71.5357 22.6273L70.9242 22.7801L69.5482 23.8504L67.102 25.8379L64.9616 27.3668L63.1269 28.5899L60.9865 29.9658L60.0692 30.5774V32.8707L60.2221 36.6929L59.6105 37.6102L59.1519 37.7631L58.6932 37.1515L57.3172 33.3294L55.9412 31.4947L52.8835 29.6601L51.6604 28.8956L51.9662 28.2841L52.8835 27.8254L54.1066 27.9783L57.7759 28.8956L58.5403 29.0485L59.7634 27.9783L62.0567 25.5321L63.1269 24.309L64.9616 22.4744L66.6433 21.0984L68.3251 19.5695H68.6309L68.1722 18.4993L67.102 17.4291L66.0318 16.0531L63.7385 14.5242L60.0692 12.3838L57.0115 10.3963L56.8586 9.93762L58.3874 9.32607L60.375 9.93762L68.3251 12.8425L69.0895 12.9954L71.23 10.7021L71.6886 10.3963L72.4531 10.5492L73.0646 11.3136L71.9944 12.5367L71.0771 13.1483H70.7713L71.0771 13.7598L73.3704 14.6771L74.4406 14.5242L76.581 12.6896L78.5685 11.0078L80.5561 9.47896L83.308 7.95009L84.684 7.49142Z" fill="#182535"/>
<path d="M89.7294 8.40878L90.6467 8.71456L93.0929 10.2434L95.9977 12.3839L98.1382 14.0656L100.279 16.0531L101.502 17.1234L103.183 18.8051L104.254 20.0282L105.63 21.5571L107.617 24.1562L109.299 26.4495L109.758 27.3668L109.146 27.061L108.076 26.2966L107.159 25.0735L104.712 22.4744L103.336 20.9455L101.96 19.5695L100.279 18.1936L98.1382 16.5118L95.5391 14.6772L92.7871 12.9954L88.812 10.855L87.8947 10.3963L88.6592 9.63188L89.4236 8.56167L89.7294 8.40878Z" fill="#FEAD18"/>
<path d="M108.84 89.8976H109.452L109.146 90.662L107.464 92.8025L106.088 94.4842L104.254 96.6247L99.2084 101.67L97.0679 103.352L95.8448 104.422L93.0929 106.409L89.8822 108.397L88.3534 109.314L87.8947 109.161L88.5063 108.55L89.4236 108.091L89.8822 107.633L90.4938 107.48V107.174L91.2582 106.868L91.564 106.562H92.0227V106.257H92.3284V105.645L91.4111 105.798L92.7871 104.422L91.8698 104.728L89.4236 105.951L88.3534 106.257V105.951L91.2582 104.575L93.8573 103.046L95.9977 101.67L98.5968 99.8353L100.279 98.4593L103.336 95.7073L105.783 93.1082L107.923 90.8149L108.687 90.0505L108.84 89.8976Z" fill="#FEAD18"/>
<path d="M102.572 97.8477L102.878 98.0006L99.2083 101.67L97.5265 103.046L96.6092 102.893L96.3034 102.281L97.0678 101.517L98.1381 100.905H98.4438L98.7496 100.294H99.0554L99.2083 99.8353L100.278 99.0708H100.584V98.7651L101.807 98.0006L102.572 97.8477Z" fill="#FEA31D"/>
<path d="M8.69903 30.8832H9.0048L8.85191 31.9534L8.39325 33.1765H8.08748L7.47593 34.7054L6.86438 34.8582L8.08748 32.1063L8.69903 30.8832Z" fill="#FEAC18"/>
<path d="M71.6887 10.3963L72.4532 10.5492V11.1607L72.3003 11.3136L71.2301 11.1607L71.383 11.6194L70.7714 12.2309V11.9251L70.3127 12.078L70.4656 11.4665L71.6887 10.3963Z" fill="#0F151F"/>
<path d="M57.1643 9.78476H57.7758L58.2345 10.2434L58.3874 10.855H57.623L56.8585 10.2434V9.93765L57.1643 9.78476Z" fill="#0E131D"/>
<path d="M90.6465 104.881L90.9523 105.033L90.4936 105.492L88.659 106.257H88.3532V105.951L90.6465 104.881Z" fill="#FEAB19"/>
<path d="M4.26526 74.7618L5.48836 75.3733L5.18258 75.9849L4.72392 76.2907L4.26526 74.7618Z" fill="#FFAE18"/>
<path d="M9.92221 28.7428H10.3809L10.0751 29.5072L9.31066 30.7303H9.00488L9.31066 29.9659L9.92221 28.7428Z" fill="#FEAC19"/>
<path d="M71.8414 10.5492L72.6059 10.7021L72.3001 11.3136H71.5356V10.855L71.8414 10.5492Z" fill="#0A0C13"/>
<path d="M244.103 50.5384L245.228 50.8564C247.748 51.5658 249.338 52.422 249.338 54.5502C249.338 57.1431 247.185 58.4152 244.323 58.4152C242.195 58.4152 240.605 57.8525 239.357 57.1676L239.969 55.5287C240.874 56.0179 242.44 56.6539 244.201 56.6539C246.182 56.6539 247.308 56.0179 247.308 54.7948C247.308 53.6206 246.109 53.1314 243.883 52.5198L242.733 52.2018C240.36 51.5414 239.431 50.514 239.431 48.9728C239.431 46.8936 241.094 45.3525 244.421 45.3525C245.718 45.3525 247.503 45.7928 248.8 46.6L248.115 48.239C247.063 47.603 245.718 47.1137 244.421 47.1137C242.415 47.1137 241.461 47.7742 241.461 48.7772C241.461 49.7312 242.513 50.0981 244.103 50.5384Z" fill="#FEA31D"/>
<path d="M235.835 45.6461H237.963L232.924 58.3173C231.236 62.5737 229.744 63.2097 227.885 63.2097C227.077 63.2097 226.221 62.8917 225.781 62.696L226.221 61.0326C226.515 61.1305 227.371 61.3751 227.934 61.3751C229.793 61.3751 230.6 59.3447 231.065 58.0483L226.123 45.6461H228.252L232.043 55.5287L235.835 45.6461Z" fill="#FEA31D"/>
<path d="M222.096 56.3359C220.921 57.4611 219.209 58.4396 217.228 58.4396C215.197 58.4396 213.289 57.3878 213.289 54.966C213.289 51.6881 216.469 50.9298 219.331 50.7586L222.047 50.5873V50.1959C222.047 47.8965 221.264 47.0893 218.916 47.0893C217.619 47.0893 215.613 47.7987 214.757 48.2879L214.145 46.6979C215.344 45.9885 217.521 45.3525 219.258 45.3525C222.291 45.3525 224.126 46.5756 224.126 49.9024V55.1373C224.126 56.7517 224.468 57.5835 224.811 58.0972H222.56C222.291 57.7058 222.096 56.8007 222.096 56.3359ZM222.047 52.1529L219.821 52.2752C216.91 52.4464 215.32 53.1314 215.32 54.8682C215.32 55.969 216.274 56.605 217.497 56.605C219.209 56.605 221.093 55.6999 222.047 54.5257V52.1529Z" fill="#FEA31D"/>
<path d="M210.68 40.3378V58.1216H208.601V56.5805C207.794 57.6813 206.595 58.4152 204.956 58.4152C201.8 58.4152 199.721 55.8956 199.721 51.6392C199.721 47.7008 202.045 45.328 204.809 45.328C206.815 45.328 207.965 46.2576 208.601 47.1627V40.3378H210.68ZM208.601 54.4768V49.1686C208.112 48.1901 206.913 47.1627 205.372 47.1627C203.121 47.1627 201.874 48.875 201.874 51.8105C201.874 54.8193 203.244 56.5805 205.445 56.5805C206.791 56.5805 208.234 55.5287 208.601 54.4768Z" fill="#FEA31D"/>
<path d="M197.307 41.6098C197.307 42.2948 196.72 42.8574 196.035 42.8574C195.35 42.8574 194.788 42.2948 194.788 41.6098C194.788 40.9004 195.35 40.3378 196.035 40.3378C196.72 40.3378 197.307 40.9004 197.307 41.6098ZM197.087 45.646V58.0972H195.008V45.646H197.087Z" fill="#FEA31D"/>
<path d="M191.664 40.3378V58.0972H189.585V40.3378H191.664Z" fill="#FEA31D"/>
<path d="M186.951 51.8838C186.951 55.6754 184.848 58.4152 181.129 58.4152C177.362 58.4152 175.283 55.6754 175.283 51.8838C175.283 48.0922 177.362 45.3525 181.129 45.3525C184.848 45.3525 186.951 48.0922 186.951 51.8838ZM184.799 51.8838C184.799 49.511 183.796 47.1871 181.129 47.1871C178.414 47.1871 177.436 49.511 177.436 51.8838C177.436 54.1099 178.537 56.5805 181.129 56.5805C183.674 56.5805 184.799 54.1099 184.799 51.8838Z" fill="#FEA31D"/>
<path d="M172.355 41.2429V58.0972H170.154V50.1226H160.809V58.0972H158.608V41.2429H160.809V48.2635H170.154V41.2429H172.355Z" fill="#FEA31D"/>
<path d="M147.519 45.6461H149.647L144.608 58.3173C142.92 62.5737 141.428 63.2097 139.569 63.2097C138.761 63.2097 137.905 62.8917 137.465 62.696L137.905 61.0326C138.199 61.1305 139.055 61.3751 139.617 61.3751C141.477 61.3751 142.284 59.3447 142.749 58.0483L137.807 45.6461H139.936L143.727 55.5287L147.519 45.6461Z" fill="#FEA31D"/>
<path d="M127.762 45.4259V47.1626C128.52 46.2576 129.719 45.328 131.553 45.328C134.318 45.328 136.641 47.7008 136.641 51.6392C136.641 55.8956 134.391 58.4151 131.48 58.4151C129.768 58.4151 128.447 57.5345 127.762 56.6539V62.9651H125.682V45.4259H127.762ZM127.762 49.1685V54.4768C128.3 55.4553 129.547 56.5805 130.991 56.5805C133.192 56.5805 134.489 54.8192 134.489 51.8104C134.489 48.875 133.241 47.1626 130.991 47.1626C129.621 47.1626 128.349 48.3368 127.762 49.1685Z" fill="#FEA31D"/>
<path d="M114.169 45.4259V47.1626C114.927 46.2576 116.126 45.328 117.961 45.328C120.725 45.328 123.049 47.7008 123.049 51.6392C123.049 55.8956 120.798 58.4151 117.887 58.4151C116.175 58.4151 114.854 57.5345 114.169 56.6539V62.9651H112.09V45.4259H114.169ZM114.169 49.1685V54.4768C114.707 55.4553 115.955 56.5805 117.398 56.5805C119.599 56.5805 120.896 54.8192 120.896 51.8104C120.896 48.875 119.648 47.1626 117.398 47.1626C116.028 47.1626 114.756 48.3368 114.169 49.1685Z" fill="#FEA31D"/>
<path d="M106.594 56.3359C105.42 57.4611 103.707 58.4396 101.726 58.4396C99.6957 58.4396 97.7877 57.3878 97.7877 54.966C97.7877 51.6881 100.968 50.9298 103.83 50.7586L106.545 50.5873V50.1959C106.545 47.8965 105.762 47.0893 103.414 47.0893C102.117 47.0893 100.112 47.7987 99.2554 48.2879L98.6438 46.6979C99.8425 45.9885 102.02 45.3525 103.756 45.3525C106.79 45.3525 108.624 46.5756 108.624 49.9024V55.1373C108.624 56.7517 108.967 57.5835 109.309 58.0972H107.059C106.79 57.7058 106.594 56.8007 106.594 56.3359ZM106.545 52.1529L104.319 52.2752C101.408 52.4464 99.818 53.1314 99.818 54.8682C99.818 55.969 100.772 56.605 101.995 56.605C103.707 56.605 105.591 55.6999 106.545 54.5257V52.1529Z" fill="#FEA31D"/>
<path d="M94.8845 41.2429V58.0972H92.6829V50.1226H83.3384V58.0972H81.1368V41.2429H83.3384V48.2635H92.6829V41.2429H94.8845Z" fill="#FEA31D"/>
<path d="M246.359 74.56C246.359 74.3052 246.404 74.0703 246.496 73.8553C246.591 73.6403 246.731 73.4532 246.914 73.2939C247.101 73.1347 247.332 73.0112 247.607 72.9236C247.885 72.8321 248.206 72.7863 248.568 72.7863C248.879 72.7863 249.142 72.8221 249.357 72.8938C249.576 72.9615 249.731 73.0411 249.822 73.1327C249.866 73.1765 249.898 73.2223 249.918 73.27C249.938 73.3138 249.948 73.3616 249.948 73.4134C249.948 73.5049 249.916 73.5866 249.852 73.6582C249.789 73.7299 249.699 73.7657 249.584 73.7657C249.512 73.7657 249.446 73.7538 249.386 73.7299C249.327 73.702 249.255 73.6741 249.171 73.6463C249.092 73.6144 248.992 73.5866 248.873 73.5627C248.757 73.5348 248.608 73.5209 248.425 73.5209C248.011 73.5209 247.71 73.6045 247.523 73.7717C247.336 73.9349 247.242 74.1519 247.242 74.4227C247.242 74.6177 247.3 74.779 247.416 74.9064C247.535 75.0338 247.684 75.1473 247.864 75.2468C248.043 75.3463 248.234 75.4439 248.437 75.5394C248.644 75.635 248.837 75.7505 249.016 75.8858C249.195 76.0172 249.343 76.1805 249.458 76.3756C249.578 76.5667 249.637 76.8095 249.637 77.1042C249.637 77.3669 249.586 77.6138 249.482 77.8447C249.382 78.0756 249.235 78.2767 249.04 78.4479C248.845 78.6191 248.606 78.7545 248.323 78.854C248.045 78.9496 247.726 78.9973 247.368 78.9973C247.153 78.9973 246.958 78.9834 246.783 78.9555C246.611 78.9316 246.46 78.9018 246.329 78.8659C246.197 78.8261 246.088 78.7823 246 78.7346C245.913 78.6868 245.845 78.639 245.797 78.5912C245.753 78.5474 245.722 78.5036 245.702 78.4598C245.682 78.4121 245.672 78.3623 245.672 78.3105C245.672 78.219 245.704 78.1373 245.767 78.0657C245.831 77.994 245.921 77.9582 246.036 77.9582C246.108 77.9582 246.179 77.9741 246.251 78.0059C246.327 78.0378 246.416 78.0736 246.52 78.1134C246.627 78.1493 246.759 78.1831 246.914 78.215C247.069 78.2468 247.268 78.2628 247.511 78.2628C247.714 78.2628 247.891 78.2369 248.043 78.1851C248.198 78.1334 248.327 78.0617 248.431 77.9701C248.538 77.8785 248.618 77.771 248.67 77.6476C248.726 77.5242 248.753 77.3888 248.753 77.2415C248.753 77.0862 248.72 76.9529 248.652 76.8414C248.584 76.7299 248.493 76.6304 248.377 76.5428C248.266 76.4552 248.138 76.3756 247.995 76.3039C247.852 76.2282 247.704 76.1526 247.553 76.0769C247.406 76.0013 247.26 75.9197 247.117 75.8321C246.974 75.7445 246.844 75.643 246.729 75.5275C246.617 75.4081 246.528 75.2707 246.46 75.1154C246.392 74.9602 246.359 74.775 246.359 74.56Z" fill="#0A0F12"/>
<path d="M240.004 73.1864C240.024 73.071 240.066 72.9854 240.13 72.9296C240.193 72.8739 240.277 72.846 240.38 72.846C240.492 72.846 240.578 72.8818 240.637 72.9535C240.701 73.0252 240.733 73.1446 240.733 73.3118C240.733 73.3676 240.729 73.4233 240.721 73.4791C240.717 73.5348 240.711 73.5866 240.703 73.6343C240.695 73.6901 240.687 73.7458 240.679 73.8016H240.697C240.84 73.6144 241.009 73.4452 241.205 73.2939C241.288 73.2302 241.382 73.1685 241.485 73.1088C241.589 73.0491 241.702 72.9953 241.826 72.9475C241.953 72.8998 242.088 72.8619 242.232 72.8341C242.379 72.8022 242.536 72.7863 242.704 72.7863C242.998 72.7863 243.261 72.8281 243.492 72.9117C243.723 72.9913 243.918 73.1088 244.077 73.2641C244.24 73.4193 244.364 73.6085 244.447 73.8314C244.535 74.0544 244.579 74.3072 244.579 74.5899C244.579 74.7452 244.565 74.9263 244.537 75.1333C244.509 75.3364 244.473 75.5534 244.43 75.7843C244.39 76.0112 244.346 76.2442 244.298 76.4831C244.25 76.7219 244.205 76.9549 244.161 77.1818C244.121 77.4048 244.087 77.6138 244.059 77.8089C244.031 78.004 244.017 78.1712 244.017 78.3105C244.017 78.3703 244.019 78.42 244.023 78.4598C244.027 78.4996 244.029 78.5474 244.029 78.6032C244.029 78.6947 243.996 78.7724 243.928 78.8361C243.864 78.8958 243.771 78.9257 243.647 78.9257C243.492 78.9257 243.369 78.8799 243.277 78.7883C243.189 78.6927 243.146 78.5534 243.146 78.3703C243.146 78.2389 243.159 78.0796 243.187 77.8925C243.215 77.7014 243.249 77.4963 243.289 77.2773C243.329 77.0584 243.372 76.8314 243.42 76.5965C243.468 76.3576 243.512 76.1247 243.552 75.8978C243.591 75.6708 243.625 75.4558 243.653 75.2528C243.681 75.0458 243.695 74.8646 243.695 74.7093C243.695 74.3112 243.595 74.0165 243.396 73.8254C243.197 73.6304 242.899 73.5328 242.501 73.5328C242.353 73.5328 242.212 73.5507 242.077 73.5866C241.945 73.6224 241.822 73.6702 241.706 73.7299C241.591 73.7896 241.483 73.8573 241.384 73.9329C241.284 74.0086 241.193 74.0862 241.109 74.1659C240.918 74.353 240.747 74.562 240.595 74.7929L239.944 78.5255C239.925 78.6529 239.875 78.7525 239.795 78.8241C239.72 78.8918 239.61 78.9257 239.467 78.9257C239.323 78.9257 239.218 78.8918 239.15 78.8241C239.082 78.7525 239.059 78.6529 239.079 78.5255L240.004 73.1864Z" fill="#0A0F12"/>
<path d="M232.288 76.6085C232.288 76.0272 232.376 75.5016 232.551 75.0318C232.726 74.558 232.963 74.1559 233.262 73.8254C233.56 73.491 233.911 73.2342 234.313 73.055C234.715 72.8759 235.143 72.7863 235.597 72.7863C235.947 72.7863 236.266 72.842 236.552 72.9535C236.839 73.065 237.084 73.2262 237.287 73.4373C237.49 73.6443 237.647 73.8951 237.759 74.1897C237.87 74.4844 237.926 74.8128 237.926 75.1751C237.926 75.7564 237.838 76.284 237.663 76.7578C237.488 77.2276 237.251 77.6297 236.953 77.9641C236.654 78.2946 236.304 78.5494 235.901 78.7286C235.499 78.9077 235.071 78.9973 234.617 78.9973C234.263 78.9973 233.943 78.9416 233.656 78.8301C233.369 78.7186 233.124 78.5594 232.921 78.3523C232.718 78.1413 232.561 77.8905 232.45 77.5998C232.342 77.3052 232.288 76.9748 232.288 76.6085ZM233.196 76.501C233.196 76.7876 233.232 77.0405 233.304 77.2594C233.375 77.4784 233.479 77.6616 233.614 77.8089C233.75 77.9522 233.911 78.0617 234.098 78.1373C234.289 78.213 234.502 78.2508 234.737 78.2508C235.036 78.2508 235.322 78.1851 235.597 78.0537C235.872 77.9184 236.114 77.7253 236.326 77.4744C236.537 77.2196 236.704 76.9091 236.827 76.5428C236.955 76.1725 237.018 75.7525 237.018 75.2826C237.018 74.996 236.982 74.7432 236.911 74.5242C236.839 74.3052 236.736 74.124 236.6 73.9807C236.465 73.8334 236.302 73.7219 236.111 73.6463C235.923 73.5706 235.712 73.5328 235.477 73.5328C235.179 73.5328 234.892 73.6005 234.617 73.7359C234.343 73.8672 234.1 74.0603 233.889 74.3152C233.678 74.57 233.509 74.8805 233.381 75.2468C233.258 75.6131 233.196 76.0312 233.196 76.501Z" fill="#0A0F12"/>
<path d="M230.27 73.2581C230.29 73.1307 230.337 73.0331 230.413 72.9654C230.493 72.8938 230.604 72.8579 230.747 72.8579C230.891 72.8579 230.996 72.8938 231.064 72.9654C231.132 73.0331 231.156 73.1307 231.136 73.2581L230.222 78.5255C230.202 78.6529 230.152 78.7525 230.073 78.8241C229.997 78.8918 229.887 78.9257 229.744 78.9257C229.601 78.9257 229.495 78.8918 229.428 78.8241C229.36 78.7525 229.336 78.6529 229.356 78.5255L230.27 73.2581ZM230.443 71.0364C230.443 70.9369 230.459 70.8453 230.491 70.7617C230.526 70.6781 230.574 70.6064 230.634 70.5467C230.698 70.483 230.771 70.4352 230.855 70.4034C230.939 70.3676 231.03 70.3496 231.13 70.3496C231.217 70.3496 231.299 70.3656 231.374 70.3974C231.45 70.4253 231.514 70.4671 231.566 70.5228C231.621 70.5746 231.663 70.6383 231.691 70.7139C231.723 70.7896 231.739 70.8732 231.739 70.9648C231.739 71.0643 231.721 71.1559 231.685 71.2395C231.653 71.3231 231.605 71.3968 231.542 71.4605C231.482 71.5202 231.41 71.568 231.327 71.6038C231.243 71.6356 231.152 71.6516 231.052 71.6516C230.96 71.6516 230.877 71.6376 230.801 71.6098C230.73 71.5779 230.666 71.5361 230.61 71.4843C230.558 71.4286 230.516 71.3629 230.485 71.2873C230.457 71.2116 230.443 71.128 230.443 71.0364Z" fill="#0A0F12"/>
<path d="M225.695 73.6224C225.595 73.6224 225.52 73.5965 225.468 73.5448C225.416 73.493 225.39 73.4154 225.39 73.3119C225.39 73.2482 225.398 73.1904 225.414 73.1387C225.434 73.0869 225.462 73.0431 225.498 73.0073C225.534 72.9714 225.575 72.9436 225.623 72.9237C225.671 72.9038 225.725 72.8938 225.784 72.8938H226.513L226.859 71.6695C226.875 71.6058 226.897 71.5501 226.925 71.5023C226.957 71.4505 226.991 71.4087 227.027 71.3769C227.066 71.341 227.108 71.3152 227.152 71.2992C227.2 71.2793 227.252 71.2694 227.307 71.2694C227.415 71.2694 227.494 71.3012 227.546 71.3649C227.598 71.4286 227.614 71.5182 227.594 71.6337L227.379 72.8938H228.681C228.78 72.8938 228.856 72.9197 228.908 72.9714C228.96 73.0232 228.985 73.1008 228.985 73.2044C228.985 73.272 228.976 73.3318 228.956 73.3835C228.94 73.4353 228.914 73.4791 228.878 73.5149C228.842 73.5507 228.8 73.5786 228.753 73.5985C228.705 73.6144 228.651 73.6224 228.591 73.6224H227.26L226.615 77.3431C226.559 77.6496 226.583 77.8706 226.686 78.006C226.794 78.1413 226.959 78.209 227.182 78.209C227.273 78.209 227.353 78.205 227.421 78.1971C227.492 78.1851 227.554 78.1732 227.606 78.1612C227.658 78.1453 227.703 78.1334 227.743 78.1254C227.787 78.1135 227.829 78.1075 227.869 78.1075C227.956 78.1075 228.024 78.1314 228.072 78.1792C228.12 78.2269 228.143 78.2906 228.143 78.3703C228.143 78.434 228.133 78.4897 228.114 78.5375C228.094 78.5853 228.062 78.6311 228.018 78.6749C227.938 78.7545 227.811 78.8202 227.636 78.8719C227.461 78.9237 227.26 78.9496 227.033 78.9496C226.511 78.9496 226.143 78.8162 225.928 78.5494C225.717 78.2827 225.657 77.8825 225.749 77.349L226.394 73.6224H225.695Z" fill="#0A0F12"/>
<path d="M223.443 77.0803C223.42 77.2196 223.398 77.351 223.378 77.4744C223.362 77.5939 223.346 77.7054 223.33 77.8089C223.318 77.9124 223.308 78.0059 223.3 78.0896C223.296 78.1732 223.294 78.2468 223.294 78.3105C223.294 78.3703 223.296 78.42 223.3 78.4598C223.304 78.4996 223.306 78.5474 223.306 78.6032C223.306 78.6987 223.274 78.7764 223.211 78.8361C223.151 78.8958 223.067 78.9257 222.96 78.9257C222.856 78.9257 222.773 78.9038 222.709 78.86C222.645 78.8122 222.595 78.7465 222.56 78.6629C222.528 78.5793 222.508 78.4797 222.5 78.3643C222.492 78.2488 222.496 78.1194 222.512 77.9761H222.494C222.351 78.1672 222.181 78.3384 221.986 78.4897C221.903 78.5534 221.809 78.6171 221.706 78.6808C221.602 78.7405 221.489 78.7943 221.365 78.8421C221.246 78.8898 221.116 78.9277 220.977 78.9555C220.838 78.9834 220.69 78.9973 220.535 78.9973C220.244 78.9973 219.98 78.9476 219.741 78.848C219.502 78.7485 219.295 78.6032 219.12 78.4121C218.948 78.217 218.815 77.9761 218.719 77.6894C218.624 77.4028 218.576 77.0703 218.576 76.6921C218.576 76.0789 218.664 75.5315 218.839 75.0497C219.018 74.564 219.265 74.1539 219.579 73.8195C219.898 73.485 220.276 73.2302 220.714 73.055C221.156 72.8759 221.64 72.7863 222.165 72.7863C222.404 72.7863 222.621 72.8042 222.816 72.84C223.015 72.8719 223.191 72.9137 223.342 72.9655C223.493 73.0132 223.619 73.065 223.718 73.1207C223.818 73.1765 223.889 73.2242 223.933 73.2641C223.957 73.2879 223.977 73.3138 223.993 73.3417C224.009 73.3656 224.021 73.3954 224.029 73.4313C224.041 73.4631 224.047 73.501 224.047 73.5447C224.047 73.5885 224.041 73.6403 224.029 73.7L223.443 77.0803ZM223.145 73.7956C223.065 73.7478 222.972 73.702 222.864 73.6582C222.773 73.6264 222.655 73.5965 222.512 73.5686C222.368 73.5368 222.201 73.5209 222.01 73.5209C221.656 73.5209 221.325 73.5885 221.019 73.7239C220.712 73.8553 220.445 74.0504 220.218 74.3092C219.992 74.564 219.812 74.8805 219.681 75.2588C219.55 75.637 219.484 76.071 219.484 76.5607C219.484 76.8593 219.514 77.1161 219.573 77.3311C219.633 77.5421 219.717 77.7173 219.824 77.8566C219.936 77.992 220.067 78.0916 220.218 78.1553C220.374 78.219 220.545 78.2508 220.732 78.2508C220.871 78.2508 221.005 78.2329 221.132 78.1971C221.26 78.1612 221.379 78.1154 221.491 78.0597C221.606 78 221.713 77.9323 221.813 77.8566C221.913 77.781 222.002 77.7034 222.082 77.6237C222.273 77.4366 222.442 77.2256 222.589 76.9907L223.145 73.7956Z" fill="#0A0F12"/>
<path d="M212.628 73.1864C212.648 73.071 212.69 72.9854 212.753 72.9296C212.817 72.8739 212.901 72.846 213.004 72.846C213.116 72.846 213.201 72.8818 213.261 72.9535C213.325 73.0252 213.356 73.1446 213.356 73.3118C213.356 73.3676 213.352 73.4233 213.345 73.4791C213.341 73.5348 213.335 73.5866 213.327 73.6343C213.319 73.6901 213.311 73.7458 213.303 73.8016H213.321C213.464 73.6144 213.633 73.4452 213.828 73.2939C213.912 73.2302 214.005 73.1685 214.109 73.1088C214.212 73.0491 214.326 72.9953 214.449 72.9475C214.577 72.8998 214.712 72.8619 214.855 72.8341C215.003 72.8022 215.16 72.7863 215.327 72.7863C215.622 72.7863 215.885 72.8281 216.116 72.9117C216.347 72.9913 216.542 73.1088 216.701 73.2641C216.864 73.4193 216.988 73.6085 217.071 73.8314C217.159 74.0544 217.203 74.3072 217.203 74.5899C217.203 74.7452 217.189 74.9263 217.161 75.1333C217.133 75.3364 217.097 75.5534 217.053 75.7843C217.013 76.0112 216.97 76.2442 216.922 76.4831C216.874 76.7219 216.828 76.9549 216.784 77.1818C216.745 77.4048 216.711 77.6138 216.683 77.8089C216.655 78.004 216.641 78.1712 216.641 78.3105C216.641 78.3703 216.643 78.42 216.647 78.4598C216.651 78.4996 216.653 78.5474 216.653 78.6032C216.653 78.6947 216.619 78.7724 216.552 78.8361C216.488 78.8958 216.394 78.9257 216.271 78.9257C216.116 78.9257 215.992 78.8799 215.901 78.7883C215.813 78.6927 215.769 78.5534 215.769 78.3703C215.769 78.2389 215.783 78.0796 215.811 77.8925C215.839 77.7014 215.873 77.4963 215.913 77.2773C215.952 77.0584 215.996 76.8314 216.044 76.5965C216.092 76.3576 216.135 76.1247 216.175 75.8978C216.215 75.6708 216.249 75.4558 216.277 75.2528C216.305 75.0458 216.319 74.8646 216.319 74.7093C216.319 74.3112 216.219 74.0165 216.02 73.8254C215.821 73.6304 215.522 73.5328 215.124 73.5328C214.977 73.5328 214.836 73.5507 214.7 73.5866C214.569 73.6224 214.445 73.6702 214.33 73.7299C214.214 73.7896 214.107 73.8573 214.007 73.9329C213.908 74.0086 213.816 74.0862 213.733 74.1659C213.542 74.353 213.37 74.562 213.219 74.7929L212.568 78.5255C212.548 78.6529 212.498 78.7525 212.419 78.8241C212.343 78.8918 212.234 78.9257 212.09 78.9257C211.947 78.9257 211.842 78.8918 211.774 78.8241C211.706 78.7525 211.682 78.6529 211.702 78.5255L212.628 73.1864Z" fill="#0A0F12"/>
<path d="M209.594 73.2581C209.614 73.1307 209.662 73.0331 209.737 72.9654C209.817 72.8938 209.928 72.8579 210.072 72.8579C210.215 72.8579 210.321 72.8938 210.388 72.9654C210.456 73.0331 210.48 73.1307 210.46 73.2581L209.546 78.5255C209.526 78.6529 209.477 78.7525 209.397 78.8241C209.321 78.8918 209.212 78.9257 209.068 78.9257C208.925 78.9257 208.82 78.8918 208.752 78.8241C208.684 78.7525 208.66 78.6529 208.68 78.5255L209.594 73.2581ZM209.767 71.0364C209.767 70.9369 209.783 70.8453 209.815 70.7617C209.851 70.6781 209.899 70.6064 209.958 70.5467C210.022 70.483 210.096 70.4352 210.179 70.4034C210.263 70.3676 210.354 70.3496 210.454 70.3496C210.542 70.3496 210.623 70.3656 210.699 70.3974C210.774 70.4253 210.838 70.4671 210.89 70.5228C210.946 70.5746 210.987 70.6383 211.015 70.7139C211.047 70.7896 211.063 70.8732 211.063 70.9648C211.063 71.0643 211.045 71.1559 211.009 71.2395C210.978 71.3231 210.93 71.3968 210.866 71.4605C210.806 71.5202 210.735 71.568 210.651 71.6038C210.567 71.6356 210.476 71.6516 210.376 71.6516C210.285 71.6516 210.201 71.6376 210.126 71.6098C210.054 71.5779 209.99 71.5361 209.934 71.4843C209.883 71.4286 209.841 71.3629 209.809 71.2873C209.781 71.2116 209.767 71.128 209.767 71.0364Z" fill="#0A0F12"/>
<path d="M205.019 73.6224C204.92 73.6224 204.844 73.5965 204.792 73.5448C204.741 73.493 204.715 73.4154 204.715 73.3119C204.715 73.2482 204.723 73.1904 204.739 73.1387C204.759 73.0869 204.786 73.0431 204.822 73.0073C204.858 72.9714 204.9 72.9436 204.948 72.9237C204.995 72.9038 205.049 72.8938 205.109 72.8938H205.837L206.184 71.6695C206.2 71.6058 206.222 71.5501 206.25 71.5023C206.281 71.4505 206.315 71.4087 206.351 71.3769C206.391 71.341 206.433 71.3152 206.477 71.2992C206.524 71.2793 206.576 71.2694 206.632 71.2694C206.739 71.2694 206.819 71.3012 206.871 71.3649C206.922 71.4286 206.938 71.5182 206.918 71.6337L206.703 72.8938H208.005C208.105 72.8938 208.181 72.9197 208.232 72.9714C208.284 73.0232 208.31 73.1008 208.31 73.2044C208.31 73.272 208.3 73.3318 208.28 73.3835C208.264 73.4353 208.238 73.4791 208.202 73.5149C208.167 73.5507 208.125 73.5786 208.077 73.5985C208.029 73.6144 207.976 73.6224 207.916 73.6224H206.584L205.939 77.3431C205.883 77.6496 205.907 77.8706 206.011 78.006C206.118 78.1413 206.283 78.209 206.506 78.209C206.598 78.209 206.678 78.205 206.745 78.1971C206.817 78.1851 206.879 78.1732 206.93 78.1612C206.982 78.1453 207.028 78.1334 207.068 78.1254C207.112 78.1135 207.153 78.1075 207.193 78.1075C207.281 78.1075 207.348 78.1314 207.396 78.1792C207.444 78.2269 207.468 78.2906 207.468 78.3703C207.468 78.434 207.458 78.4897 207.438 78.5375C207.418 78.5853 207.386 78.6311 207.342 78.6749C207.263 78.7545 207.135 78.8202 206.96 78.8719C206.785 78.9237 206.584 78.9496 206.357 78.9496C205.835 78.9496 205.467 78.8162 205.252 78.5494C205.041 78.2827 204.981 77.8825 205.073 77.349L205.718 73.6224H205.019Z" fill="#0A0F12"/>
<path d="M200.003 74.56C200.003 74.3052 200.049 74.0703 200.14 73.8553C200.236 73.6403 200.375 73.4532 200.558 73.2939C200.745 73.1347 200.976 73.0112 201.251 72.9236C201.53 72.8321 201.85 72.7863 202.212 72.7863C202.523 72.7863 202.786 72.8221 203.001 72.8938C203.22 72.9615 203.375 73.0411 203.467 73.1327C203.51 73.1765 203.542 73.2223 203.562 73.27C203.582 73.3138 203.592 73.3616 203.592 73.4134C203.592 73.5049 203.56 73.5866 203.496 73.6582C203.433 73.7299 203.343 73.7657 203.228 73.7657C203.156 73.7657 203.09 73.7538 203.031 73.7299C202.971 73.702 202.899 73.6741 202.816 73.6463C202.736 73.6144 202.636 73.5866 202.517 73.5627C202.402 73.5348 202.252 73.5209 202.069 73.5209C201.655 73.5209 201.354 73.6045 201.167 73.7717C200.98 73.9349 200.887 74.1519 200.887 74.4227C200.887 74.6177 200.944 74.779 201.06 74.9064C201.179 75.0338 201.329 75.1473 201.508 75.2468C201.687 75.3463 201.878 75.4439 202.081 75.5394C202.288 75.635 202.481 75.7505 202.66 75.8858C202.839 76.0172 202.987 76.1805 203.102 76.3756C203.222 76.5667 203.281 76.8095 203.281 77.1042C203.281 77.3669 203.23 77.6138 203.126 77.8447C203.027 78.0756 202.879 78.2767 202.684 78.4479C202.489 78.6191 202.25 78.7545 201.968 78.854C201.689 78.9496 201.37 78.9973 201.012 78.9973C200.797 78.9973 200.602 78.9834 200.427 78.9555C200.256 78.9316 200.104 78.9018 199.973 78.8659C199.841 78.8261 199.732 78.7823 199.644 78.7346C199.557 78.6868 199.489 78.639 199.441 78.5912C199.398 78.5474 199.366 78.5036 199.346 78.4598C199.326 78.4121 199.316 78.3623 199.316 78.3105C199.316 78.219 199.348 78.1373 199.411 78.0657C199.475 77.994 199.565 77.9582 199.68 77.9582C199.752 77.9582 199.824 77.9741 199.895 78.0059C199.971 78.0378 200.06 78.0736 200.164 78.1134C200.271 78.1493 200.403 78.1831 200.558 78.215C200.713 78.2468 200.912 78.2628 201.155 78.2628C201.358 78.2628 201.536 78.2369 201.687 78.1851C201.842 78.1334 201.972 78.0617 202.075 77.9701C202.183 77.8785 202.262 77.771 202.314 77.6476C202.37 77.5242 202.398 77.3888 202.398 77.2415C202.398 77.0862 202.364 76.9529 202.296 76.8414C202.228 76.7299 202.137 76.6304 202.021 76.5428C201.91 76.4552 201.782 76.3756 201.639 76.3039C201.496 76.2282 201.348 76.1526 201.197 76.0769C201.05 76.0013 200.905 75.9197 200.761 75.8321C200.618 75.7445 200.488 75.643 200.373 75.5275C200.262 75.4081 200.172 75.2707 200.104 75.1154C200.037 74.9602 200.003 74.775 200.003 74.56Z" fill="#0A0F12"/>
<path d="M193.547 76.6921C193.547 76.0909 193.634 75.5494 193.81 75.0676C193.985 74.5859 194.222 74.1758 194.52 73.8374C194.823 73.499 195.175 73.2402 195.577 73.061C195.979 72.8779 196.407 72.7863 196.861 72.7863C197.152 72.7863 197.407 72.8241 197.626 72.8998C197.849 72.9714 198.034 73.071 198.181 73.1984C198.333 73.3258 198.446 73.4771 198.522 73.6522C198.601 73.8234 198.641 74.0086 198.641 74.2077C198.641 74.562 198.553 74.8745 198.378 75.1453C198.207 75.416 197.948 75.641 197.602 75.8201C197.256 75.9953 196.82 76.1247 196.294 76.2083C195.772 76.2919 195.161 76.3238 194.461 76.3039C194.437 76.5945 194.455 76.8593 194.514 77.0982C194.574 77.3331 194.676 77.5361 194.819 77.7073C194.962 77.8746 195.145 78.0059 195.368 78.1015C195.595 78.1931 195.86 78.2389 196.163 78.2389C196.386 78.2389 196.577 78.2229 196.736 78.1911C196.895 78.1553 197.031 78.1194 197.142 78.0836C197.258 78.0438 197.353 78.0079 197.429 77.9761C197.508 77.9403 197.582 77.9223 197.65 77.9223C197.737 77.9223 197.805 77.9502 197.853 78.0059C197.904 78.0577 197.93 78.1234 197.93 78.203C197.93 78.2667 197.92 78.3225 197.901 78.3703C197.881 78.418 197.849 78.4638 197.805 78.5076C197.749 78.5634 197.664 78.6211 197.548 78.6808C197.437 78.7365 197.303 78.7883 197.148 78.8361C196.993 78.8839 196.818 78.9217 196.622 78.9496C196.431 78.9814 196.226 78.9973 196.007 78.9973C195.605 78.9973 195.251 78.9416 194.944 78.8301C194.638 78.7186 194.381 78.5614 194.174 78.3583C193.967 78.1553 193.81 77.9124 193.702 77.6297C193.599 77.347 193.547 77.0345 193.547 76.6921ZM194.556 75.5992C195.098 75.6231 195.567 75.6091 195.966 75.5574C196.368 75.5056 196.7 75.424 196.963 75.3125C197.226 75.197 197.421 75.0557 197.548 74.8885C197.676 74.7213 197.739 74.5341 197.739 74.3271C197.739 74.0763 197.66 73.8792 197.5 73.7359C197.341 73.5925 197.086 73.5209 196.736 73.5209C196.493 73.5209 196.256 73.5666 196.025 73.6582C195.798 73.7458 195.587 73.8792 195.392 74.0584C195.201 74.2335 195.032 74.4505 194.885 74.7093C194.741 74.9681 194.632 75.2647 194.556 75.5992Z" fill="#0A0F12"/>
<path d="M186.959 71.0842C186.983 70.9449 187.035 70.8394 187.115 70.7677C187.198 70.696 187.312 70.6602 187.455 70.6602H189.3C189.866 70.6602 190.362 70.7319 190.788 70.8752C191.214 71.0145 191.57 71.2196 191.857 71.4903C192.143 71.7611 192.358 72.0915 192.502 72.4817C192.645 72.8719 192.717 73.3178 192.717 73.8195C192.717 74.5799 192.595 75.2727 192.352 75.8978C192.113 76.5189 191.775 77.0524 191.337 77.4983C190.903 77.9402 190.383 78.2826 189.778 78.5255C189.173 78.7684 188.508 78.8898 187.784 78.8898H186.087C185.928 78.8898 185.817 78.85 185.753 78.7704C185.689 78.6907 185.671 78.5693 185.699 78.4061L186.959 71.0842ZM187.933 78.1134C188.498 78.1134 189.016 78.0179 189.486 77.8268C189.959 77.6317 190.365 77.355 190.704 76.9966C191.046 76.6343 191.311 76.1964 191.498 75.6828C191.689 75.1652 191.785 74.5839 191.785 73.9389C191.785 73.1187 191.566 72.4976 191.128 72.0756C190.694 71.6496 190.033 71.4366 189.145 71.4366H187.79L186.637 78.1134H187.933Z" fill="#0A0F12"/>
<path d="M175.529 76.6085C175.529 76.0272 175.616 75.5016 175.792 75.0318C175.967 74.558 176.204 74.1559 176.502 73.8254C176.801 73.491 177.151 73.2342 177.553 73.055C177.955 72.8759 178.383 72.7863 178.837 72.7863C179.188 72.7863 179.506 72.842 179.793 72.9535C180.08 73.065 180.324 73.2262 180.527 73.4373C180.73 73.6443 180.888 73.8951 180.999 74.1897C181.111 74.4844 181.166 74.8128 181.166 75.1751C181.166 75.7564 181.079 76.284 180.904 76.7578C180.729 77.2276 180.492 77.6297 180.193 77.9641C179.894 78.2946 179.544 78.5494 179.142 78.7286C178.74 78.9077 178.312 78.9973 177.858 78.9973C177.504 78.9973 177.183 78.9416 176.896 78.8301C176.61 78.7186 176.365 78.5594 176.162 78.3523C175.959 78.1413 175.801 77.8905 175.69 77.5998C175.582 77.3052 175.529 76.9748 175.529 76.6085ZM176.437 76.501C176.437 76.7876 176.472 77.0405 176.544 77.2594C176.616 77.4784 176.719 77.6616 176.855 77.8089C176.99 77.9522 177.151 78.0617 177.338 78.1373C177.529 78.213 177.742 78.2508 177.977 78.2508C178.276 78.2508 178.563 78.1851 178.837 78.0537C179.112 77.9184 179.355 77.7253 179.566 77.4744C179.777 77.2196 179.944 76.9091 180.068 76.5428C180.195 76.1725 180.259 75.7525 180.259 75.2826C180.259 74.996 180.223 74.7432 180.151 74.5242C180.08 74.3052 179.976 74.124 179.841 73.9807C179.705 73.8334 179.542 73.7219 179.351 73.6463C179.164 73.5706 178.953 73.5328 178.718 73.5328C178.419 73.5328 178.133 73.6005 177.858 73.7359C177.583 73.8672 177.34 74.0603 177.129 74.3152C176.918 74.57 176.749 74.8805 176.622 75.2468C176.498 75.6131 176.437 76.0312 176.437 76.501Z" fill="#0A0F12"/>
<path d="M171.957 73.6224C171.858 73.6224 171.782 73.5965 171.731 73.5448C171.679 73.493 171.653 73.4154 171.653 73.3119C171.653 73.2482 171.661 73.1904 171.677 73.1387C171.697 73.0869 171.725 73.0431 171.76 73.0073C171.796 72.9714 171.838 72.9436 171.886 72.9237C171.934 72.9038 171.987 72.8938 172.047 72.8938H172.776L173.122 71.6695C173.138 71.6058 173.16 71.5501 173.188 71.5023C173.22 71.4505 173.253 71.4087 173.289 71.3769C173.329 71.341 173.371 71.3152 173.415 71.2992C173.462 71.2793 173.514 71.2694 173.57 71.2694C173.677 71.2694 173.757 71.3012 173.809 71.3649C173.861 71.4286 173.877 71.5182 173.857 71.6337L173.642 72.8938H174.944C175.043 72.8938 175.119 72.9197 175.17 72.9714C175.222 73.0232 175.248 73.1008 175.248 73.2044C175.248 73.272 175.238 73.3318 175.218 73.3835C175.202 73.4353 175.176 73.4791 175.141 73.5149C175.105 73.5507 175.063 73.5786 175.015 73.5985C174.967 73.6144 174.914 73.6224 174.854 73.6224H173.522L172.877 77.3431C172.821 77.6496 172.845 77.8706 172.949 78.006C173.056 78.1413 173.222 78.209 173.445 78.209C173.536 78.209 173.616 78.205 173.683 78.1971C173.755 78.1851 173.817 78.1732 173.869 78.1612C173.92 78.1453 173.966 78.1334 174.006 78.1254C174.05 78.1135 174.092 78.1075 174.131 78.1075C174.219 78.1075 174.287 78.1314 174.334 78.1792C174.382 78.2269 174.406 78.2906 174.406 78.3703C174.406 78.434 174.396 78.4897 174.376 78.5375C174.356 78.5853 174.324 78.6311 174.281 78.6749C174.201 78.7545 174.074 78.8202 173.898 78.8719C173.723 78.9237 173.522 78.9496 173.295 78.9496C172.774 78.9496 172.405 78.8162 172.19 78.5494C171.979 78.2827 171.92 77.8825 172.011 77.349L172.656 73.6224H171.957Z" fill="#0A0F12"/>
<path d="M158.58 73.1864C158.6 73.071 158.642 72.9854 158.705 72.9296C158.769 72.8739 158.853 72.846 158.956 72.846C159.068 72.846 159.153 72.8818 159.213 72.9535C159.277 73.0252 159.308 73.1446 159.308 73.3118C159.308 73.3676 159.304 73.4233 159.297 73.4791C159.293 73.5348 159.287 73.5866 159.279 73.6343C159.271 73.6901 159.263 73.7458 159.255 73.8016H159.273C159.412 73.6144 159.577 73.4452 159.768 73.2939C159.852 73.2302 159.944 73.1685 160.043 73.1088C160.147 73.0491 160.258 72.9953 160.377 72.9475C160.501 72.8998 160.632 72.8619 160.772 72.8341C160.911 72.8022 161.06 72.7863 161.22 72.7863C161.458 72.7863 161.673 72.8161 161.865 72.8759C162.056 72.9316 162.223 73.0112 162.366 73.1148C162.51 73.2143 162.629 73.3357 162.725 73.4791C162.824 73.6224 162.898 73.7777 162.946 73.9449C163.109 73.7299 163.3 73.5368 163.519 73.3656C163.61 73.2939 163.712 73.2242 163.823 73.1566C163.939 73.0849 164.062 73.0232 164.194 72.9714C164.329 72.9157 164.472 72.8719 164.624 72.84C164.775 72.8042 164.934 72.7863 165.101 72.7863C165.38 72.7863 165.631 72.8281 165.854 72.9117C166.081 72.9913 166.272 73.1088 166.427 73.2641C166.587 73.4193 166.708 73.6085 166.792 73.8314C166.875 74.0544 166.917 74.3072 166.917 74.5899C166.917 74.7452 166.903 74.9263 166.875 75.1333C166.847 75.3364 166.811 75.5534 166.768 75.7843C166.728 76.0112 166.684 76.2442 166.636 76.4831C166.589 76.7219 166.543 76.9549 166.499 77.1818C166.459 77.4048 166.425 77.6138 166.397 77.8089C166.37 78.004 166.356 78.1712 166.356 78.3105C166.356 78.3703 166.358 78.42 166.362 78.4598C166.366 78.4996 166.368 78.5474 166.368 78.6032C166.368 78.6947 166.334 78.7724 166.266 78.8361C166.202 78.8958 166.109 78.9257 165.985 78.9257C165.83 78.9257 165.707 78.8799 165.615 78.7883C165.527 78.6927 165.484 78.5534 165.484 78.3703C165.484 78.2389 165.498 78.0796 165.525 77.8925C165.553 77.7014 165.587 77.4963 165.627 77.2773C165.667 77.0584 165.711 76.8314 165.758 76.5965C165.806 76.3576 165.85 76.1247 165.89 75.8978C165.93 75.6708 165.963 75.4558 165.991 75.2528C166.019 75.0458 166.033 74.8646 166.033 74.7093C166.033 74.3112 165.936 74.0165 165.74 73.8254C165.549 73.6304 165.269 73.5328 164.898 73.5328C164.755 73.5328 164.618 73.5527 164.486 73.5925C164.359 73.6284 164.237 73.6781 164.122 73.7418C164.007 73.8016 163.899 73.8712 163.8 73.9509C163.704 74.0265 163.614 74.1061 163.531 74.1897C163.34 74.3809 163.17 74.5978 163.023 74.8407C163.023 74.8407 163.019 74.8745 163.011 74.9422C163.007 75.0099 162.995 75.1075 162.975 75.2349L162.408 78.5255C162.388 78.6529 162.336 78.7525 162.253 78.8241C162.169 78.8918 162.056 78.9257 161.912 78.9257C161.769 78.9257 161.665 78.8918 161.602 78.8241C161.542 78.7525 161.522 78.6529 161.542 78.5255L162.086 75.3782C162.105 75.2548 162.121 75.1373 162.133 75.0258C162.145 74.9144 162.151 74.8089 162.151 74.7093C162.151 74.3112 162.054 74.0165 161.859 73.8254C161.667 73.6304 161.387 73.5328 161.017 73.5328C160.877 73.5328 160.744 73.5507 160.616 73.5866C160.489 73.6224 160.368 73.6702 160.252 73.7299C160.141 73.7896 160.035 73.8573 159.936 73.9329C159.84 74.0086 159.752 74.0862 159.673 74.1659C159.482 74.353 159.314 74.562 159.171 74.7929L158.52 78.5255C158.5 78.6529 158.45 78.7525 158.371 78.8241C158.295 78.8918 158.186 78.9257 158.042 78.9257C157.899 78.9257 157.794 78.8918 157.726 78.8241C157.658 78.7525 157.634 78.6529 157.654 78.5255L158.58 73.1864Z" fill="#0A0F12"/>
<path d="M155.743 77.0803C155.719 77.2196 155.697 77.351 155.677 77.4744C155.661 77.5939 155.645 77.7054 155.63 77.8089C155.618 77.9124 155.608 78.0059 155.6 78.0896C155.596 78.1732 155.594 78.2468 155.594 78.3105C155.594 78.3703 155.596 78.42 155.6 78.4598C155.604 78.4996 155.606 78.5474 155.606 78.6032C155.606 78.6987 155.574 78.7764 155.51 78.8361C155.45 78.8958 155.367 78.9257 155.259 78.9257C155.156 78.9257 155.072 78.9038 155.008 78.86C154.945 78.8122 154.895 78.7465 154.859 78.6629C154.827 78.5793 154.807 78.4797 154.799 78.3643C154.791 78.2488 154.795 78.1194 154.811 77.9761H154.793C154.65 78.1672 154.481 78.3384 154.286 78.4897C154.202 78.5534 154.109 78.6171 154.005 78.6808C153.902 78.7405 153.788 78.7943 153.665 78.8421C153.545 78.8898 153.416 78.9277 153.277 78.9555C153.137 78.9834 152.99 78.9973 152.835 78.9973C152.544 78.9973 152.279 78.9476 152.04 78.848C151.801 78.7485 151.594 78.6032 151.419 78.4121C151.248 78.217 151.115 77.9761 151.019 77.6894C150.924 77.4028 150.876 77.0703 150.876 76.6921C150.876 76.0789 150.963 75.5315 151.139 75.0497C151.318 74.564 151.565 74.1539 151.879 73.8195C152.198 73.485 152.576 73.2302 153.014 73.055C153.456 72.8759 153.939 72.7863 154.465 72.7863C154.704 72.7863 154.921 72.8042 155.116 72.84C155.315 72.8719 155.49 72.9137 155.642 72.9655C155.793 73.0132 155.918 73.065 156.018 73.1207C156.117 73.1765 156.189 73.2242 156.233 73.2641C156.257 73.2879 156.277 73.3138 156.292 73.3417C156.308 73.3656 156.32 73.3954 156.328 73.4313C156.34 73.4631 156.346 73.501 156.346 73.5447C156.346 73.5885 156.34 73.6403 156.328 73.7L155.743 77.0803ZM155.444 73.7956C155.365 73.7478 155.271 73.702 155.164 73.6582C155.072 73.6264 154.955 73.5965 154.811 73.5686C154.668 73.5368 154.501 73.5209 154.31 73.5209C153.955 73.5209 153.625 73.5885 153.318 73.7239C153.012 73.8553 152.745 74.0504 152.518 74.3092C152.291 74.564 152.112 74.8805 151.981 75.2588C151.849 75.637 151.784 76.071 151.784 76.5607C151.784 76.8593 151.813 77.1161 151.873 77.3311C151.933 77.5421 152.016 77.7173 152.124 77.8566C152.235 77.992 152.367 78.0916 152.518 78.1553C152.673 78.219 152.845 78.2508 153.032 78.2508C153.171 78.2508 153.304 78.2329 153.432 78.1971C153.559 78.1612 153.679 78.1154 153.79 78.0597C153.906 78 154.013 77.9323 154.113 77.8566C154.212 77.781 154.302 77.7034 154.381 77.6237C154.572 77.4366 154.742 77.2256 154.889 76.9907L155.444 73.7956Z" fill="#0A0F12"/>
<path d="M144.826 76.6921C144.826 76.0909 144.914 75.5494 145.089 75.0676C145.264 74.5859 145.501 74.1758 145.799 73.8374C146.102 73.499 146.454 73.2402 146.857 73.061C147.259 72.8779 147.687 72.7863 148.141 72.7863C148.431 72.7863 148.686 72.8241 148.905 72.8998C149.128 72.9714 149.313 73.071 149.46 73.1984C149.612 73.3258 149.725 73.4771 149.801 73.6522C149.88 73.8234 149.92 74.0086 149.92 74.2077C149.92 74.562 149.833 74.8745 149.657 75.1453C149.486 75.416 149.227 75.641 148.881 75.8201C148.535 75.9953 148.099 76.1247 147.573 76.2083C147.052 76.2919 146.44 76.3238 145.74 76.3039C145.716 76.5945 145.734 76.8593 145.793 77.0982C145.853 77.3331 145.955 77.5361 146.098 77.7073C146.241 77.8746 146.425 78.0059 146.647 78.1015C146.874 78.1931 147.139 78.2389 147.442 78.2389C147.665 78.2389 147.856 78.2229 148.015 78.1911C148.174 78.1553 148.31 78.1194 148.421 78.0836C148.537 78.0438 148.632 78.0079 148.708 77.9761C148.788 77.9403 148.861 77.9223 148.929 77.9223C149.016 77.9223 149.084 77.9502 149.132 78.0059C149.184 78.0577 149.21 78.1234 149.21 78.203C149.21 78.2667 149.2 78.3225 149.18 78.3703C149.16 78.418 149.128 78.4638 149.084 78.5076C149.028 78.5634 148.943 78.6211 148.827 78.6808C148.716 78.7365 148.582 78.7883 148.427 78.8361C148.272 78.8839 148.097 78.9217 147.902 78.9496C147.711 78.9814 147.505 78.9973 147.287 78.9973C146.884 78.9973 146.53 78.9416 146.223 78.8301C145.917 78.7186 145.66 78.5614 145.453 78.3583C145.246 78.1553 145.089 77.9124 144.981 77.6297C144.878 77.347 144.826 77.0345 144.826 76.6921ZM145.835 75.5992C146.377 75.6231 146.847 75.6091 147.245 75.5574C147.647 75.5056 147.979 75.424 148.242 75.3125C148.505 75.197 148.7 75.0557 148.827 74.8885C148.955 74.7213 149.018 74.5341 149.018 74.3271C149.018 74.0763 148.939 73.8792 148.78 73.7359C148.62 73.5925 148.365 73.5209 148.015 73.5209C147.772 73.5209 147.535 73.5666 147.304 73.6582C147.077 73.7458 146.866 73.8792 146.671 74.0584C146.48 74.2335 146.311 74.4505 146.164 74.7093C146.02 74.9681 145.911 75.2647 145.835 75.5992Z" fill="#0A0F12"/>
<path d="M141.798 73.1864C141.818 73.071 141.86 72.9854 141.924 72.9296C141.987 72.8739 142.071 72.846 142.174 72.846C142.286 72.846 142.371 72.8818 142.431 72.9535C142.495 73.0252 142.527 73.1446 142.527 73.3118C142.527 73.3755 142.523 73.4412 142.515 73.5089C142.507 73.5766 142.499 73.6383 142.491 73.6941C142.479 73.7617 142.467 73.8294 142.455 73.8971H142.467C142.579 73.7378 142.698 73.5905 142.825 73.4552C142.957 73.3158 143.092 73.1984 143.231 73.1028C143.371 73.0033 143.514 72.9256 143.661 72.8699C143.809 72.8142 143.956 72.7863 144.103 72.7863C144.299 72.7863 144.446 72.8301 144.545 72.9177C144.645 73.0053 144.695 73.1187 144.695 73.2581C144.695 73.3377 144.683 73.4114 144.659 73.4791C144.635 73.5428 144.601 73.5965 144.557 73.6403C144.517 73.6841 144.47 73.7179 144.414 73.7418C144.358 73.7657 144.299 73.7777 144.235 73.7777C144.195 73.7777 144.159 73.7757 144.127 73.7717C144.095 73.7677 144.064 73.7637 144.032 73.7597C144 73.7518 143.968 73.7458 143.936 73.7418C143.904 73.7339 143.869 73.7299 143.829 73.7299C143.729 73.7299 143.622 73.7538 143.506 73.8016C143.395 73.8493 143.275 73.923 143.148 74.0225C143.024 74.1221 142.897 74.2455 142.766 74.3928C142.634 74.5401 142.503 74.7133 142.371 74.9124L141.738 78.5255C141.719 78.6529 141.669 78.7525 141.589 78.8241C141.513 78.8918 141.404 78.9257 141.261 78.9257C141.133 78.9257 141.036 78.8998 140.968 78.848C140.9 78.7923 140.867 78.7127 140.867 78.6091C140.867 78.5852 140.869 78.5594 140.872 78.5315C140.876 78.4996 140.886 78.4399 140.902 78.3523L141.798 73.1864Z" fill="#0A0F12"/>
<path d="M134.178 71.0842C134.202 70.9449 134.253 70.8394 134.333 70.7677C134.417 70.696 134.53 70.6602 134.673 70.6602H136.519C137.084 70.6602 137.58 70.7319 138.006 70.8752C138.432 71.0145 138.788 71.2196 139.075 71.4903C139.361 71.7611 139.576 72.0915 139.72 72.4817C139.863 72.8719 139.935 73.3178 139.935 73.8195C139.935 74.5799 139.813 75.2727 139.57 75.8978C139.332 76.5189 138.993 77.0524 138.555 77.4983C138.121 77.9402 137.602 78.2826 136.996 78.5255C136.391 78.7684 135.726 78.8898 135.002 78.8898H133.306C133.146 78.8898 133.035 78.85 132.971 78.7704C132.908 78.6907 132.89 78.5693 132.918 78.4061L134.178 71.0842ZM135.151 78.1134C135.716 78.1134 136.234 78.0179 136.704 77.8268C137.178 77.6317 137.584 77.355 137.922 76.9966C138.265 76.6343 138.529 76.1964 138.716 75.6828C138.908 75.1652 139.003 74.5839 139.003 73.9389C139.003 73.1187 138.784 72.4976 138.346 72.0756C137.912 71.6496 137.251 71.4366 136.363 71.4366H135.008L133.855 78.1134H135.151Z" fill="#0A0F12"/>
<path d="M119.737 73.1864C119.757 73.071 119.799 72.9854 119.862 72.9296C119.926 72.8739 120.01 72.846 120.113 72.846C120.225 72.846 120.31 72.8818 120.37 72.9535C120.434 73.0252 120.465 73.1446 120.465 73.3118C120.465 73.3676 120.461 73.4233 120.453 73.4791C120.449 73.5348 120.443 73.5866 120.436 73.6343C120.428 73.6901 120.42 73.7458 120.412 73.8016H120.43C120.569 73.6144 120.734 73.4452 120.925 73.2939C121.009 73.2302 121.1 73.1685 121.2 73.1088C121.303 73.0491 121.415 72.9953 121.534 72.9475C121.658 72.8998 121.789 72.8619 121.929 72.8341C122.068 72.8022 122.217 72.7863 122.376 72.7863C122.615 72.7863 122.83 72.8161 123.021 72.8759C123.213 72.9316 123.38 73.0112 123.523 73.1148C123.666 73.2143 123.786 73.3357 123.881 73.4791C123.981 73.6224 124.055 73.7777 124.102 73.9449C124.266 73.7299 124.457 73.5368 124.676 73.3656C124.767 73.2939 124.869 73.2242 124.98 73.1566C125.096 73.0849 125.219 73.0232 125.351 72.9714C125.486 72.9157 125.629 72.8719 125.781 72.84C125.932 72.8042 126.091 72.7863 126.258 72.7863C126.537 72.7863 126.788 72.8281 127.011 72.9117C127.238 72.9913 127.429 73.1088 127.584 73.2641C127.743 73.4193 127.865 73.6085 127.949 73.8314C128.032 74.0544 128.074 74.3072 128.074 74.5899C128.074 74.7452 128.06 74.9263 128.032 75.1333C128.004 75.3364 127.968 75.5534 127.925 75.7843C127.885 76.0112 127.841 76.2442 127.793 76.4831C127.745 76.7219 127.7 76.9549 127.656 77.1818C127.616 77.4048 127.582 77.6138 127.554 77.8089C127.526 78.004 127.513 78.1712 127.513 78.3105C127.513 78.3703 127.515 78.42 127.519 78.4598C127.522 78.4996 127.524 78.5474 127.524 78.6032C127.524 78.6947 127.491 78.7724 127.423 78.8361C127.359 78.8958 127.266 78.9257 127.142 78.9257C126.987 78.9257 126.864 78.8799 126.772 78.7883C126.684 78.6927 126.641 78.5534 126.641 78.3703C126.641 78.2389 126.655 78.0796 126.682 77.8925C126.71 77.7014 126.744 77.4963 126.784 77.2773C126.824 77.0584 126.868 76.8314 126.915 76.5965C126.963 76.3576 127.007 76.1247 127.047 75.8978C127.087 75.6708 127.12 75.4558 127.148 75.2528C127.176 75.0458 127.19 74.8646 127.19 74.7093C127.19 74.3112 127.092 74.0165 126.897 73.8254C126.706 73.6304 126.426 73.5328 126.055 73.5328C125.912 73.5328 125.775 73.5527 125.643 73.5925C125.516 73.6284 125.394 73.6781 125.279 73.7418C125.163 73.8016 125.056 73.8712 124.956 73.9509C124.861 74.0265 124.771 74.1061 124.688 74.1897C124.497 74.3809 124.327 74.5978 124.18 74.8407C124.18 74.8407 124.176 74.8745 124.168 74.9422C124.164 75.0099 124.152 75.1075 124.132 75.2349L123.565 78.5255C123.545 78.6529 123.493 78.7525 123.41 78.8241C123.326 78.8918 123.213 78.9257 123.069 78.9257C122.926 78.9257 122.822 78.8918 122.759 78.8241C122.699 78.7525 122.679 78.6529 122.699 78.5255L123.242 75.3782C123.262 75.2548 123.278 75.1373 123.29 75.0258C123.302 74.9144 123.308 74.8089 123.308 74.7093C123.308 74.3112 123.211 74.0165 123.016 73.8254C122.824 73.6304 122.544 73.5328 122.173 73.5328C122.034 73.5328 121.901 73.5507 121.773 73.5866C121.646 73.6224 121.524 73.6702 121.409 73.7299C121.298 73.7896 121.192 73.8573 121.092 73.9329C120.997 74.0086 120.909 74.0862 120.83 74.1659C120.639 74.353 120.471 74.562 120.328 74.7929L119.677 78.5255C119.657 78.6529 119.607 78.7525 119.528 78.8241C119.452 78.8918 119.343 78.9257 119.199 78.9257C119.056 78.9257 118.95 78.8918 118.883 78.8241C118.815 78.7525 118.791 78.6529 118.811 78.5255L119.737 73.1864Z" fill="#0A0F12"/>
<path d="M112.021 76.6085C112.021 76.0272 112.108 75.5016 112.284 75.0318C112.459 74.558 112.696 74.1559 112.994 73.8254C113.293 73.491 113.643 73.2342 114.045 73.055C114.448 72.8759 114.876 72.7863 115.329 72.7863C115.68 72.7863 115.998 72.842 116.285 72.9535C116.572 73.065 116.817 73.2262 117.02 73.4373C117.223 73.6443 117.38 73.8951 117.491 74.1897C117.603 74.4844 117.659 74.8128 117.659 75.1751C117.659 75.7564 117.571 76.284 117.396 76.7578C117.221 77.2276 116.984 77.6297 116.685 77.9641C116.387 78.2946 116.036 78.5494 115.634 78.7286C115.232 78.9077 114.804 78.9973 114.35 78.9973C113.996 78.9973 113.675 78.9416 113.388 78.8301C113.102 78.7186 112.857 78.5594 112.654 78.3523C112.451 78.1413 112.294 77.8905 112.182 77.5998C112.075 77.3052 112.021 76.9748 112.021 76.6085ZM112.929 76.501C112.929 76.7876 112.964 77.0405 113.036 77.2594C113.108 77.4784 113.211 77.6616 113.347 77.8089C113.482 77.9522 113.643 78.0617 113.83 78.1373C114.022 78.213 114.235 78.2508 114.469 78.2508C114.768 78.2508 115.055 78.1851 115.329 78.0537C115.604 77.9184 115.847 77.7253 116.058 77.4744C116.269 77.2196 116.436 76.9091 116.56 76.5428C116.687 76.1725 116.751 75.7525 116.751 75.2826C116.751 74.996 116.715 74.7432 116.643 74.5242C116.572 74.3052 116.468 74.124 116.333 73.9807C116.197 73.8334 116.034 73.7219 115.843 73.6463C115.656 73.5706 115.445 73.5328 115.21 73.5328C114.911 73.5328 114.625 73.6005 114.35 73.7359C114.075 73.8672 113.832 74.0603 113.621 74.3152C113.41 74.57 113.241 74.8805 113.114 75.2468C112.99 75.6131 112.929 76.0312 112.929 76.501Z" fill="#0A0F12"/>
<path d="M108.975 73.1864C108.995 73.071 109.037 72.9854 109.1 72.9296C109.164 72.8739 109.248 72.846 109.351 72.846C109.463 72.846 109.548 72.8818 109.608 72.9535C109.672 73.0252 109.704 73.1446 109.704 73.3118C109.704 73.3755 109.7 73.4412 109.692 73.5089C109.684 73.5766 109.676 73.6383 109.668 73.6941C109.656 73.7617 109.644 73.8294 109.632 73.8971H109.644C109.755 73.7378 109.875 73.5905 110.002 73.4552C110.134 73.3158 110.269 73.1984 110.408 73.1028C110.548 73.0033 110.691 72.9256 110.838 72.8699C110.986 72.8142 111.133 72.7863 111.28 72.7863C111.475 72.7863 111.623 72.8301 111.722 72.9177C111.822 73.0053 111.871 73.1187 111.871 73.2581C111.871 73.3377 111.86 73.4114 111.836 73.4791C111.812 73.5428 111.778 73.5965 111.734 73.6403C111.694 73.6841 111.647 73.7179 111.591 73.7418C111.535 73.7657 111.475 73.7777 111.412 73.7777C111.372 73.7777 111.336 73.7757 111.304 73.7717C111.272 73.7677 111.24 73.7637 111.209 73.7597C111.177 73.7518 111.145 73.7458 111.113 73.7418C111.081 73.7339 111.045 73.7299 111.006 73.7299C110.906 73.7299 110.798 73.7538 110.683 73.8016C110.572 73.8493 110.452 73.923 110.325 74.0225C110.201 74.1221 110.074 74.2455 109.942 74.3928C109.811 74.5401 109.68 74.7133 109.548 74.9124L108.915 78.5255C108.895 78.6529 108.846 78.7525 108.766 78.8241C108.69 78.8918 108.581 78.9257 108.437 78.9257C108.31 78.9257 108.213 78.8998 108.145 78.848C108.077 78.7923 108.043 78.7127 108.043 78.6091C108.043 78.5852 108.045 78.5594 108.049 78.5315C108.053 78.4996 108.063 78.4399 108.079 78.3523L108.975 73.1864Z" fill="#0A0F12"/>
<path d="M104.699 73.6224C104.599 73.6224 104.524 73.5965 104.472 73.5447C104.42 73.493 104.394 73.4153 104.394 73.3118C104.394 73.2481 104.402 73.1904 104.418 73.1386C104.438 73.0869 104.466 73.0431 104.502 73.0072C104.538 72.9714 104.58 72.9435 104.627 72.9236C104.675 72.9037 104.729 72.8938 104.789 72.8938H105.523L105.655 72.1472C105.718 71.7849 105.812 71.4684 105.935 71.1977C106.063 70.9269 106.22 70.702 106.407 70.5228C106.594 70.3437 106.811 70.2103 107.058 70.1227C107.305 70.0311 107.578 69.9853 107.876 69.9853C108.127 69.9853 108.326 70.0132 108.473 70.0689C108.621 70.1207 108.724 70.1764 108.784 70.2362C108.82 70.272 108.848 70.3118 108.868 70.3556C108.887 70.3954 108.897 70.4432 108.897 70.4989C108.897 70.5547 108.887 70.6044 108.868 70.6482C108.852 70.688 108.826 70.7239 108.79 70.7557C108.758 70.7876 108.72 70.8115 108.676 70.8274C108.633 70.8433 108.587 70.8513 108.539 70.8513C108.483 70.8513 108.432 70.8453 108.384 70.8334C108.34 70.8174 108.29 70.8015 108.235 70.7856C108.179 70.7697 108.115 70.7557 108.043 70.7438C107.972 70.7279 107.886 70.7199 107.787 70.7199C107.456 70.7199 107.181 70.8373 106.962 71.0723C106.747 71.3072 106.598 71.6715 106.515 72.1652L106.389 72.8938H107.482C107.582 72.8938 107.657 72.9196 107.709 72.9714C107.761 73.0232 107.787 73.1008 107.787 73.2043C107.787 73.272 107.777 73.3317 107.757 73.3835C107.741 73.4352 107.715 73.479 107.679 73.5149C107.643 73.5507 107.601 73.5786 107.554 73.5985C107.506 73.6144 107.452 73.6224 107.392 73.6224H106.264L105.213 79.6841C105.141 80.0822 105.035 80.4167 104.896 80.6874C104.757 80.9582 104.59 81.1752 104.394 81.3384C104.203 81.5056 103.988 81.6251 103.749 81.6967C103.511 81.7684 103.26 81.8042 102.997 81.8042C102.746 81.8042 102.549 81.7783 102.406 81.7266C102.258 81.6748 102.153 81.6171 102.089 81.5534C102.053 81.5176 102.027 81.4777 102.012 81.4339C101.992 81.3941 101.982 81.3464 101.982 81.2906C101.982 81.2389 101.992 81.1911 102.012 81.1473C102.027 81.1035 102.051 81.0657 102.083 81.0338C102.115 81.002 102.153 80.9781 102.197 80.9621C102.237 80.9462 102.282 80.9383 102.334 80.9383C102.386 80.9383 102.436 80.9442 102.483 80.9562C102.531 80.9721 102.583 80.988 102.639 81.0039C102.694 81.0199 102.758 81.0338 102.83 81.0458C102.897 81.0617 102.983 81.0696 103.087 81.0696C103.226 81.0696 103.361 81.0458 103.493 80.998C103.624 80.9542 103.745 80.8746 103.857 80.7591C103.972 80.6476 104.074 80.4963 104.162 80.3052C104.249 80.1181 104.317 79.8812 104.365 79.5945L105.398 73.6224H104.699Z" fill="#0A0F12"/>
</svg>
